<mxfile host="Electron" agent="Mozilla/5.0 (Windows NT 10.0; Win64; x64) AppleWebKit/537.36 (KHTML, like Gecko) draw.io/26.2.2 Chrome/134.0.6998.178 Electron/35.1.2 Safari/537.36" version="26.2.2">
  <diagram name="Page-1" id="6133507b-19e7-1e82-6fc7-422aa6c4b21f">
    <mxGraphModel dx="4860" dy="3048" grid="1" gridSize="10" guides="1" tooltips="1" connect="1" arrows="1" fold="1" page="1" pageScale="1" pageWidth="1100" pageHeight="850" background="none" math="0" shadow="0">
      <root>
        <mxCell id="0" />
        <mxCell id="1" parent="0" />
        <mxCell id="wTqP9-YxAa7SySuIX3t5-1" value="ScheduleRepo" style="swimlane;fontStyle=1;align=center;verticalAlign=top;childLayout=stackLayout;horizontal=1;startSize=26;horizontalStack=0;resizeParent=1;resizeParentMax=0;resizeLast=0;collapsible=1;marginBottom=0;whiteSpace=wrap;html=1;" parent="1" vertex="1">
          <mxGeometry x="432.5" y="650" width="340" height="180" as="geometry">
            <mxRectangle x="432.5" y="650" width="120" height="30" as="alternateBounds" />
          </mxGeometry>
        </mxCell>
        <mxCell id="wTqP9-YxAa7SySuIX3t5-2" value="- db: *sqlx.DB" style="text;strokeColor=none;fillColor=none;align=left;verticalAlign=top;spacingLeft=4;spacingRight=4;overflow=hidden;rotatable=0;points=[[0,0.5],[1,0.5]];portConstraint=eastwest;whiteSpace=wrap;html=1;" parent="wTqP9-YxAa7SySuIX3t5-1" vertex="1">
          <mxGeometry y="26" width="340" height="26" as="geometry" />
        </mxCell>
        <mxCell id="wTqP9-YxAa7SySuIX3t5-3" value="" style="line;strokeWidth=1;fillColor=none;align=left;verticalAlign=middle;spacingTop=-1;spacingLeft=3;spacingRight=3;rotatable=0;labelPosition=right;points=[];portConstraint=eastwest;strokeColor=inherit;" parent="wTqP9-YxAa7SySuIX3t5-1" vertex="1">
          <mxGeometry y="52" width="340" height="8" as="geometry" />
        </mxCell>
        <mxCell id="wTqP9-YxAa7SySuIX3t5-4" value="+ Migrate(): error&lt;div&gt;&lt;br&gt;&lt;/div&gt;" style="text;strokeColor=none;fillColor=none;align=left;verticalAlign=top;spacingLeft=4;spacingRight=4;overflow=hidden;rotatable=0;points=[[0,0.5],[1,0.5]];portConstraint=eastwest;whiteSpace=wrap;html=1;" parent="wTqP9-YxAa7SySuIX3t5-1" vertex="1">
          <mxGeometry y="60" width="340" height="30" as="geometry" />
        </mxCell>
        <mxCell id="Qp80Ie9Y8w1xpVCgb48m-6" value="&lt;div&gt;+&amp;nbsp;Save(Context, Schedule): error&lt;/div&gt;" style="text;strokeColor=none;fillColor=none;align=left;verticalAlign=top;spacingLeft=4;spacingRight=4;overflow=hidden;rotatable=0;points=[[0,0.5],[1,0.5]];portConstraint=eastwest;whiteSpace=wrap;html=1;" parent="wTqP9-YxAa7SySuIX3t5-1" vertex="1">
          <mxGeometry y="90" width="340" height="30" as="geometry" />
        </mxCell>
        <mxCell id="Qp80Ie9Y8w1xpVCgb48m-7" value="&lt;div&gt;+&amp;nbsp;GetByUser(Context, userId: int64): ([]Schedule, error)&lt;/div&gt;" style="text;strokeColor=none;fillColor=none;align=left;verticalAlign=top;spacingLeft=4;spacingRight=4;overflow=hidden;rotatable=0;points=[[0,0.5],[1,0.5]];portConstraint=eastwest;whiteSpace=wrap;html=1;" parent="wTqP9-YxAa7SySuIX3t5-1" vertex="1">
          <mxGeometry y="120" width="340" height="30" as="geometry" />
        </mxCell>
        <mxCell id="Qp80Ie9Y8w1xpVCgb48m-8" value="+&amp;nbsp;GetById(Context, userId: int64, id: int): (Schedule, error)" style="text;strokeColor=none;fillColor=none;align=left;verticalAlign=top;spacingLeft=4;spacingRight=4;overflow=hidden;rotatable=0;points=[[0,0.5],[1,0.5]];portConstraint=eastwest;whiteSpace=wrap;html=1;" parent="wTqP9-YxAa7SySuIX3t5-1" vertex="1">
          <mxGeometry y="150" width="340" height="30" as="geometry" />
        </mxCell>
        <mxCell id="Qp80Ie9Y8w1xpVCgb48m-10" value="«interface»&lt;br&gt;&lt;b&gt;Repo&lt;/b&gt;" style="swimlane;fontStyle=0;childLayout=stackLayout;horizontal=1;startSize=50;fillColor=none;horizontalStack=0;resizeParent=1;resizeParentMax=0;resizeLast=0;collapsible=1;marginBottom=0;whiteSpace=wrap;html=1;" parent="1" vertex="1">
          <mxGeometry x="432.5" y="270" width="340" height="128" as="geometry" />
        </mxCell>
        <mxCell id="Qp80Ie9Y8w1xpVCgb48m-11" value="+&amp;nbsp;Save(Context, Schedule): error" style="text;strokeColor=none;fillColor=none;align=left;verticalAlign=top;spacingLeft=4;spacingRight=4;overflow=hidden;rotatable=0;points=[[0,0.5],[1,0.5]];portConstraint=eastwest;whiteSpace=wrap;html=1;" parent="Qp80Ie9Y8w1xpVCgb48m-10" vertex="1">
          <mxGeometry y="50" width="340" height="26" as="geometry" />
        </mxCell>
        <mxCell id="Qp80Ie9Y8w1xpVCgb48m-12" value="+&amp;nbsp;GetByUser(Context, userId: int64): ([]Schedule, error)" style="text;strokeColor=none;fillColor=none;align=left;verticalAlign=top;spacingLeft=4;spacingRight=4;overflow=hidden;rotatable=0;points=[[0,0.5],[1,0.5]];portConstraint=eastwest;whiteSpace=wrap;html=1;" parent="Qp80Ie9Y8w1xpVCgb48m-10" vertex="1">
          <mxGeometry y="76" width="340" height="26" as="geometry" />
        </mxCell>
        <mxCell id="Qp80Ie9Y8w1xpVCgb48m-13" value="+&amp;nbsp;GetById(Context, userId: int64, id: int): (Schedule, error)" style="text;strokeColor=none;fillColor=none;align=left;verticalAlign=top;spacingLeft=4;spacingRight=4;overflow=hidden;rotatable=0;points=[[0,0.5],[1,0.5]];portConstraint=eastwest;whiteSpace=wrap;html=1;" parent="Qp80Ie9Y8w1xpVCgb48m-10" vertex="1">
          <mxGeometry y="102" width="340" height="26" as="geometry" />
        </mxCell>
        <mxCell id="Qp80Ie9Y8w1xpVCgb48m-15" value="" style="endArrow=block;dashed=1;endFill=0;endSize=12;html=1;rounded=0;entryX=0.5;entryY=1;entryDx=0;entryDy=0;exitX=0.5;exitY=0;exitDx=0;exitDy=0;" parent="1" source="wTqP9-YxAa7SySuIX3t5-1" target="Qp80Ie9Y8w1xpVCgb48m-10" edge="1">
          <mxGeometry width="160" relative="1" as="geometry">
            <mxPoint x="580" y="620" as="sourcePoint" />
            <mxPoint x="330" y="660" as="targetPoint" />
          </mxGeometry>
        </mxCell>
        <mxCell id="Qp80Ie9Y8w1xpVCgb48m-20" value="schedule" style="shape=umlFrame;whiteSpace=wrap;html=1;pointerEvents=0;width=70;height=30;" parent="1" vertex="1">
          <mxGeometry x="317.5" y="-30" width="570" height="500" as="geometry" />
        </mxCell>
        <mxCell id="Qp80Ie9Y8w1xpVCgb48m-24" value="Schedule" style="swimlane;fontStyle=0;childLayout=stackLayout;horizontal=1;startSize=26;fillColor=none;horizontalStack=0;resizeParent=1;resizeParentMax=0;resizeLast=0;collapsible=1;marginBottom=0;whiteSpace=wrap;html=1;" parent="1" vertex="1">
          <mxGeometry x="-240" y="452" width="140" height="156" as="geometry" />
        </mxCell>
        <mxCell id="Qp80Ie9Y8w1xpVCgb48m-25" value="+ Id: int" style="text;strokeColor=none;fillColor=none;align=left;verticalAlign=top;spacingLeft=4;spacingRight=4;overflow=hidden;rotatable=0;points=[[0,0.5],[1,0.5]];portConstraint=eastwest;whiteSpace=wrap;html=1;" parent="Qp80Ie9Y8w1xpVCgb48m-24" vertex="1">
          <mxGeometry y="26" width="140" height="26" as="geometry" />
        </mxCell>
        <mxCell id="Qp80Ie9Y8w1xpVCgb48m-26" value="+ UserId: int64" style="text;strokeColor=none;fillColor=none;align=left;verticalAlign=top;spacingLeft=4;spacingRight=4;overflow=hidden;rotatable=0;points=[[0,0.5],[1,0.5]];portConstraint=eastwest;whiteSpace=wrap;html=1;" parent="Qp80Ie9Y8w1xpVCgb48m-24" vertex="1">
          <mxGeometry y="52" width="140" height="26" as="geometry" />
        </mxCell>
        <mxCell id="Qp80Ie9Y8w1xpVCgb48m-27" value="+ Name: string" style="text;strokeColor=none;fillColor=none;align=left;verticalAlign=top;spacingLeft=4;spacingRight=4;overflow=hidden;rotatable=0;points=[[0,0.5],[1,0.5]];portConstraint=eastwest;whiteSpace=wrap;html=1;" parent="Qp80Ie9Y8w1xpVCgb48m-24" vertex="1">
          <mxGeometry y="78" width="140" height="26" as="geometry" />
        </mxCell>
        <mxCell id="Qp80Ie9Y8w1xpVCgb48m-28" value="+ EndAt: *time.Time" style="text;strokeColor=none;fillColor=none;align=left;verticalAlign=top;spacingLeft=4;spacingRight=4;overflow=hidden;rotatable=0;points=[[0,0.5],[1,0.5]];portConstraint=eastwest;whiteSpace=wrap;html=1;" parent="Qp80Ie9Y8w1xpVCgb48m-24" vertex="1">
          <mxGeometry y="104" width="140" height="26" as="geometry" />
        </mxCell>
        <mxCell id="Qp80Ie9Y8w1xpVCgb48m-29" value="+ Period: time.Duration" style="text;strokeColor=none;fillColor=none;align=left;verticalAlign=top;spacingLeft=4;spacingRight=4;overflow=hidden;rotatable=0;points=[[0,0.5],[1,0.5]];portConstraint=eastwest;whiteSpace=wrap;html=1;" parent="Qp80Ie9Y8w1xpVCgb48m-24" vertex="1">
          <mxGeometry y="130" width="140" height="26" as="geometry" />
        </mxCell>
        <mxCell id="Qp80Ie9Y8w1xpVCgb48m-35" value="" style="endArrow=diamondThin;endFill=1;endSize=24;html=1;rounded=0;exitX=0.494;exitY=1.049;exitDx=0;exitDy=0;exitPerimeter=0;entryX=0.5;entryY=0;entryDx=0;entryDy=0;" parent="1" source="Qp80Ie9Y8w1xpVCgb48m-32" target="Qp80Ie9Y8w1xpVCgb48m-10" edge="1">
          <mxGeometry width="160" relative="1" as="geometry">
            <mxPoint x="601" y="191.17000000000007" as="sourcePoint" />
            <mxPoint x="550" y="240" as="targetPoint" />
          </mxGeometry>
        </mxCell>
        <mxCell id="Qp80Ie9Y8w1xpVCgb48m-36" value="Use" style="endArrow=open;endSize=12;dashed=1;html=1;rounded=0;exitX=-0.006;exitY=0.545;exitDx=0;exitDy=0;entryX=1;entryY=0.5;entryDx=0;entryDy=0;exitPerimeter=0;" parent="1" source="Qp80Ie9Y8w1xpVCgb48m-20" target="Qp80Ie9Y8w1xpVCgb48m-26" edge="1">
          <mxGeometry width="160" relative="1" as="geometry">
            <mxPoint x="30" y="610" as="sourcePoint" />
            <mxPoint x="190" y="610" as="targetPoint" />
          </mxGeometry>
        </mxCell>
        <mxCell id="Qp80Ie9Y8w1xpVCgb48m-37" value="Use" style="endArrow=open;endSize=12;dashed=1;html=1;rounded=0;exitX=0;exitY=0.5;exitDx=0;exitDy=0;entryX=1;entryY=0.5;entryDx=0;entryDy=0;" parent="1" source="wTqP9-YxAa7SySuIX3t5-4" target="Qp80Ie9Y8w1xpVCgb48m-27" edge="1">
          <mxGeometry width="160" relative="1" as="geometry">
            <mxPoint x="273" y="680" as="sourcePoint" />
            <mxPoint x="-30" y="737" as="targetPoint" />
          </mxGeometry>
        </mxCell>
        <mxCell id="Qp80Ie9Y8w1xpVCgb48m-38" value="mysql" style="shape=umlFrame;whiteSpace=wrap;html=1;pointerEvents=0;width=70;height=30;" parent="1" vertex="1">
          <mxGeometry x="320" y="620" width="570" height="250" as="geometry" />
        </mxCell>
        <mxCell id="Qp80Ie9Y8w1xpVCgb48m-39" value="h&lt;span style=&quot;background-color: transparent; color: light-dark(rgb(0, 0, 0), rgb(255, 255, 255));&quot;&gt;ttpH&lt;/span&gt;&lt;span style=&quot;background-color: transparent; color: light-dark(rgb(0, 0, 0), rgb(255, 255, 255));&quot;&gt;andler&lt;/span&gt;" style="shape=umlFrame;whiteSpace=wrap;html=1;pointerEvents=0;width=80;height=30;" parent="1" vertex="1">
          <mxGeometry x="340" y="-510" width="560" height="350" as="geometry" />
        </mxCell>
        <mxCell id="Qp80Ie9Y8w1xpVCgb48m-40" value="Handler" style="swimlane;fontStyle=1;align=center;verticalAlign=top;childLayout=stackLayout;horizontal=1;startSize=26;horizontalStack=0;resizeParent=1;resizeParentMax=0;resizeLast=0;collapsible=1;marginBottom=0;whiteSpace=wrap;html=1;" parent="1" vertex="1">
          <mxGeometry x="400" y="-412" width="410" height="164" as="geometry" />
        </mxCell>
        <mxCell id="Qp80Ie9Y8w1xpVCgb48m-47" value="- schedule: schedule.Usecase" style="text;strokeColor=none;fillColor=none;align=left;verticalAlign=top;spacingLeft=4;spacingRight=4;overflow=hidden;rotatable=0;points=[[0,0.5],[1,0.5]];portConstraint=eastwest;whiteSpace=wrap;html=1;" parent="Qp80Ie9Y8w1xpVCgb48m-40" vertex="1">
          <mxGeometry y="26" width="410" height="26" as="geometry" />
        </mxCell>
        <mxCell id="Qp80Ie9Y8w1xpVCgb48m-41" value="- rtr: *mux.Router" style="text;strokeColor=none;fillColor=none;align=left;verticalAlign=top;spacingLeft=4;spacingRight=4;overflow=hidden;rotatable=0;points=[[0,0.5],[1,0.5]];portConstraint=eastwest;whiteSpace=wrap;html=1;" parent="Qp80Ie9Y8w1xpVCgb48m-40" vertex="1">
          <mxGeometry y="52" width="410" height="26" as="geometry" />
        </mxCell>
        <mxCell id="Qp80Ie9Y8w1xpVCgb48m-48" value="- l:&amp;nbsp; *logger.Logger" style="text;strokeColor=none;fillColor=none;align=left;verticalAlign=top;spacingLeft=4;spacingRight=4;overflow=hidden;rotatable=0;points=[[0,0.5],[1,0.5]];portConstraint=eastwest;whiteSpace=wrap;html=1;" parent="Qp80Ie9Y8w1xpVCgb48m-40" vertex="1">
          <mxGeometry y="78" width="410" height="26" as="geometry" />
        </mxCell>
        <mxCell id="Qp80Ie9Y8w1xpVCgb48m-42" value="" style="line;strokeWidth=1;fillColor=none;align=left;verticalAlign=middle;spacingTop=-1;spacingLeft=3;spacingRight=3;rotatable=0;labelPosition=right;points=[];portConstraint=eastwest;strokeColor=inherit;" parent="Qp80Ie9Y8w1xpVCgb48m-40" vertex="1">
          <mxGeometry y="104" width="410" height="8" as="geometry" />
        </mxCell>
        <mxCell id="Qp80Ie9Y8w1xpVCgb48m-43" value="+ SetScheduleRoutes(*schedule.Usecase)" style="text;strokeColor=none;fillColor=none;align=left;verticalAlign=top;spacingLeft=4;spacingRight=4;overflow=hidden;rotatable=0;points=[[0,0.5],[1,0.5]];portConstraint=eastwest;whiteSpace=wrap;html=1;" parent="Qp80Ie9Y8w1xpVCgb48m-40" vertex="1">
          <mxGeometry y="112" width="410" height="26" as="geometry" />
        </mxCell>
        <mxCell id="Qp80Ie9Y8w1xpVCgb48m-62" value="+ ServeHTTP(http.ResponseWriter, *http.Request)" style="text;strokeColor=none;fillColor=none;align=left;verticalAlign=top;spacingLeft=4;spacingRight=4;overflow=hidden;rotatable=0;points=[[0,0.5],[1,0.5]];portConstraint=eastwest;whiteSpace=wrap;html=1;" parent="Qp80Ie9Y8w1xpVCgb48m-40" vertex="1">
          <mxGeometry y="138" width="410" height="26" as="geometry" />
        </mxCell>
        <mxCell id="Qp80Ie9Y8w1xpVCgb48m-51" value="Logger" style="swimlane;fontStyle=1;align=center;verticalAlign=top;childLayout=stackLayout;horizontal=1;startSize=26;horizontalStack=0;resizeParent=1;resizeParentMax=0;resizeLast=0;collapsible=1;marginBottom=0;whiteSpace=wrap;html=1;" parent="1" vertex="1">
          <mxGeometry x="1230" y="-420" width="310" height="180" as="geometry" />
        </mxCell>
        <mxCell id="Qp80Ie9Y8w1xpVCgb48m-53" value="" style="line;strokeWidth=1;fillColor=none;align=left;verticalAlign=middle;spacingTop=-1;spacingLeft=3;spacingRight=3;rotatable=0;labelPosition=right;points=[];portConstraint=eastwest;strokeColor=inherit;" parent="Qp80Ie9Y8w1xpVCgb48m-51" vertex="1">
          <mxGeometry y="26" width="310" height="8" as="geometry" />
        </mxCell>
        <mxCell id="Qp80Ie9Y8w1xpVCgb48m-54" value="+ Fatal(...any)" style="text;strokeColor=none;fillColor=none;align=left;verticalAlign=top;spacingLeft=4;spacingRight=4;overflow=hidden;rotatable=0;points=[[0,0.5],[1,0.5]];portConstraint=eastwest;whiteSpace=wrap;html=1;" parent="Qp80Ie9Y8w1xpVCgb48m-51" vertex="1">
          <mxGeometry y="34" width="310" height="26" as="geometry" />
        </mxCell>
        <mxCell id="Qp80Ie9Y8w1xpVCgb48m-55" value="+ Error(...any)" style="text;strokeColor=none;fillColor=none;align=left;verticalAlign=top;spacingLeft=4;spacingRight=4;overflow=hidden;rotatable=0;points=[[0,0.5],[1,0.5]];portConstraint=eastwest;whiteSpace=wrap;html=1;" parent="Qp80Ie9Y8w1xpVCgb48m-51" vertex="1">
          <mxGeometry y="60" width="310" height="26" as="geometry" />
        </mxCell>
        <mxCell id="Qp80Ie9Y8w1xpVCgb48m-56" value="+ Warn(...any)" style="text;strokeColor=none;fillColor=none;align=left;verticalAlign=top;spacingLeft=4;spacingRight=4;overflow=hidden;rotatable=0;points=[[0,0.5],[1,0.5]];portConstraint=eastwest;whiteSpace=wrap;html=1;" parent="Qp80Ie9Y8w1xpVCgb48m-51" vertex="1">
          <mxGeometry y="86" width="310" height="26" as="geometry" />
        </mxCell>
        <mxCell id="Qp80Ie9Y8w1xpVCgb48m-57" value="+ Debug(...any)" style="text;strokeColor=none;fillColor=none;align=left;verticalAlign=top;spacingLeft=4;spacingRight=4;overflow=hidden;rotatable=0;points=[[0,0.5],[1,0.5]];portConstraint=eastwest;whiteSpace=wrap;html=1;" parent="Qp80Ie9Y8w1xpVCgb48m-51" vertex="1">
          <mxGeometry y="112" width="310" height="26" as="geometry" />
        </mxCell>
        <mxCell id="Qp80Ie9Y8w1xpVCgb48m-58" value="+ HttpLog(method: string, url: string, code: int, remoteAddr: string,&amp;nbsp;&lt;span style=&quot;background-color: transparent; color: light-dark(rgb(0, 0, 0), rgb(255, 255, 255));&quot;&gt;read: int, write: int, d: time.Duration)&amp;nbsp;&lt;/span&gt;" style="text;strokeColor=none;fillColor=none;align=left;verticalAlign=top;spacingLeft=4;spacingRight=4;overflow=hidden;rotatable=0;points=[[0,0.5],[1,0.5]];portConstraint=eastwest;whiteSpace=wrap;html=1;" parent="Qp80Ie9Y8w1xpVCgb48m-51" vertex="1">
          <mxGeometry y="138" width="310" height="42" as="geometry" />
        </mxCell>
        <mxCell id="Qp80Ie9Y8w1xpVCgb48m-64" value="" style="endArrow=diamondThin;endFill=0;endSize=24;html=1;rounded=0;exitX=1;exitY=0.5;exitDx=0;exitDy=0;entryX=0;entryY=0.5;entryDx=0;entryDy=0;" parent="1" source="Qp80Ie9Y8w1xpVCgb48m-48" target="Qp80Ie9Y8w1xpVCgb48m-56" edge="1">
          <mxGeometry width="160" relative="1" as="geometry">
            <mxPoint x="980" y="70" as="sourcePoint" />
            <mxPoint x="1140" y="70" as="targetPoint" />
          </mxGeometry>
        </mxCell>
        <mxCell id="Qp80Ie9Y8w1xpVCgb48m-65" value="" style="endArrow=diamondThin;endFill=0;endSize=24;html=1;rounded=0;entryX=0.5;entryY=0;entryDx=0;entryDy=0;exitX=0.498;exitY=1.077;exitDx=0;exitDy=0;exitPerimeter=0;" parent="1" source="Qp80Ie9Y8w1xpVCgb48m-62" target="Qp80Ie9Y8w1xpVCgb48m-16" edge="1">
          <mxGeometry width="160" relative="1" as="geometry">
            <mxPoint x="680" y="40" as="sourcePoint" />
            <mxPoint x="1090" y="-161" as="targetPoint" />
          </mxGeometry>
        </mxCell>
        <mxCell id="Qp80Ie9Y8w1xpVCgb48m-68" value="&lt;font style=&quot;font-weight: normal; font-size: 16px;&quot;&gt;Entity layer&lt;/font&gt;" style="swimlane;horizontal=0;whiteSpace=wrap;html=1;dashed=1;" parent="1" vertex="1">
          <mxGeometry x="-340" y="370" width="320" height="310" as="geometry" />
        </mxCell>
        <mxCell id="Qp80Ie9Y8w1xpVCgb48m-70" value="&lt;font style=&quot;font-weight: normal; font-size: 16px;&quot;&gt;Data layer&lt;/font&gt;" style="swimlane;horizontal=0;whiteSpace=wrap;html=1;dashed=1;" parent="1" vertex="1">
          <mxGeometry x="250" y="560" width="730" height="420" as="geometry" />
        </mxCell>
        <mxCell id="Qp80Ie9Y8w1xpVCgb48m-73" value="&lt;font style=&quot;font-weight: normal; font-size: 16px;&quot;&gt;Business logic layer&lt;/font&gt;" style="swimlane;horizontal=0;whiteSpace=wrap;html=1;dashed=1;startSize=23;" parent="1" vertex="1">
          <mxGeometry x="230" y="-60" width="780" height="570" as="geometry" />
        </mxCell>
        <mxCell id="Qp80Ie9Y8w1xpVCgb48m-16" value="Usecase" style="swimlane;fontStyle=1;align=center;verticalAlign=top;childLayout=stackLayout;horizontal=1;startSize=26;horizontalStack=0;resizeParent=1;resizeParentMax=0;resizeLast=0;collapsible=1;marginBottom=0;whiteSpace=wrap;html=1;" parent="Qp80Ie9Y8w1xpVCgb48m-73" vertex="1">
          <mxGeometry x="125" y="80" width="500" height="164" as="geometry" />
        </mxCell>
        <mxCell id="Qp80Ie9Y8w1xpVCgb48m-46" value="- repo: Repo" style="text;strokeColor=none;fillColor=none;align=left;verticalAlign=top;spacingLeft=4;spacingRight=4;overflow=hidden;rotatable=0;points=[[0,0.5],[1,0.5]];portConstraint=eastwest;whiteSpace=wrap;html=1;" parent="Qp80Ie9Y8w1xpVCgb48m-16" vertex="1">
          <mxGeometry y="26" width="500" height="26" as="geometry" />
        </mxCell>
        <mxCell id="Qp80Ie9Y8w1xpVCgb48m-18" value="" style="line;strokeWidth=1;fillColor=none;align=left;verticalAlign=middle;spacingTop=-1;spacingLeft=3;spacingRight=3;rotatable=0;labelPosition=right;points=[];portConstraint=eastwest;strokeColor=inherit;" parent="Qp80Ie9Y8w1xpVCgb48m-16" vertex="1">
          <mxGeometry y="52" width="500" height="8" as="geometry" />
        </mxCell>
        <mxCell id="Qp80Ie9Y8w1xpVCgb48m-19" value="+ Create(Context, *CreateScheduleDTO): (*CreateScheduleResponseDTO, error)" style="text;strokeColor=none;fillColor=none;align=left;verticalAlign=top;spacingLeft=4;spacingRight=4;overflow=hidden;rotatable=0;points=[[0,0.5],[1,0.5]];portConstraint=eastwest;whiteSpace=wrap;html=1;" parent="Qp80Ie9Y8w1xpVCgb48m-16" vertex="1">
          <mxGeometry y="60" width="500" height="26" as="geometry" />
        </mxCell>
        <mxCell id="Qp80Ie9Y8w1xpVCgb48m-30" value="+ GetByUser(Context, userId: int64) ([]int, error)" style="text;strokeColor=none;fillColor=none;align=left;verticalAlign=top;spacingLeft=4;spacingRight=4;overflow=hidden;rotatable=0;points=[[0,0.5],[1,0.5]];portConstraint=eastwest;whiteSpace=wrap;html=1;" parent="Qp80Ie9Y8w1xpVCgb48m-16" vertex="1">
          <mxGeometry y="86" width="500" height="26" as="geometry" />
        </mxCell>
        <mxCell id="Qp80Ie9Y8w1xpVCgb48m-31" value="+ GetTimetable(Context, userId: int64, scheduleId: int) (*ScheduleResponseDTO, error)" style="text;strokeColor=none;fillColor=none;align=left;verticalAlign=top;spacingLeft=4;spacingRight=4;overflow=hidden;rotatable=0;points=[[0,0.5],[1,0.5]];portConstraint=eastwest;whiteSpace=wrap;html=1;" parent="Qp80Ie9Y8w1xpVCgb48m-16" vertex="1">
          <mxGeometry y="112" width="500" height="26" as="geometry" />
        </mxCell>
        <mxCell id="Qp80Ie9Y8w1xpVCgb48m-32" value="+ GetNextTakings(Context, userId: int64) ([]NextTakingResponseDTO, error)" style="text;strokeColor=none;fillColor=none;align=left;verticalAlign=top;spacingLeft=4;spacingRight=4;overflow=hidden;rotatable=0;points=[[0,0.5],[1,0.5]];portConstraint=eastwest;whiteSpace=wrap;html=1;" parent="Qp80Ie9Y8w1xpVCgb48m-16" vertex="1">
          <mxGeometry y="138" width="500" height="26" as="geometry" />
        </mxCell>
        <mxCell id="Qp80Ie9Y8w1xpVCgb48m-75" value="&lt;font style=&quot;font-weight: normal; font-size: 16px;&quot;&gt;Presintation layer&lt;/font&gt;" style="swimlane;horizontal=0;whiteSpace=wrap;html=1;dashed=1;" parent="1" vertex="1">
          <mxGeometry x="205" y="-610" width="785" height="500" as="geometry">
            <mxRectangle x="205" y="-610" width="40" height="150" as="alternateBounds" />
          </mxGeometry>
        </mxCell>
        <mxCell id="Qp80Ie9Y8w1xpVCgb48m-76" value="" style="endArrow=none;dashed=1;html=1;rounded=0;entryX=0.002;entryY=0.545;entryDx=0;entryDy=0;entryPerimeter=0;exitX=-0.004;exitY=0.22;exitDx=0;exitDy=0;exitPerimeter=0;" parent="1" source="Qp80Ie9Y8w1xpVCgb48m-10" target="Qp80Ie9Y8w1xpVCgb48m-20" edge="1">
          <mxGeometry width="50" height="50" relative="1" as="geometry">
            <mxPoint x="70" y="320" as="sourcePoint" />
            <mxPoint x="120" y="270" as="targetPoint" />
          </mxGeometry>
        </mxCell>
        <mxCell id="Qp80Ie9Y8w1xpVCgb48m-78" value="" style="endArrow=none;dashed=1;html=1;rounded=0;entryX=0.001;entryY=0.544;entryDx=0;entryDy=0;entryPerimeter=0;exitX=0;exitY=0.5;exitDx=0;exitDy=0;" parent="1" source="Qp80Ie9Y8w1xpVCgb48m-31" target="Qp80Ie9Y8w1xpVCgb48m-20" edge="1">
          <mxGeometry width="50" height="50" relative="1" as="geometry">
            <mxPoint x="441" y="270" as="sourcePoint" />
            <mxPoint x="329" y="215" as="targetPoint" />
          </mxGeometry>
        </mxCell>
      </root>
    </mxGraphModel>
  </diagram>
</mxfile>
